<svg width="360" height="377" viewBox="0 0 360 377" fill="none" xmlns="http://www.w3.org/2000/svg">
<path d="M173.585 111.556L169.667 107.727L172.053 106.467C173.365 105.775 175.131 104.846 175.977 104.403L177.516 103.597L178.677 104.103C179.316 104.381 180.036 104.698 180.277 104.808C180.518 104.917 181.897 105.508 183.342 106.121C184.787 106.734 186.166 107.322 186.407 107.429C186.648 107.535 187.633 107.966 188.596 108.386C189.559 108.806 190.61 109.264 190.931 109.405C191.252 109.545 192.205 109.959 193.048 110.324C194.758 111.066 199.079 112.948 199.98 113.344C200.301 113.485 201.057 113.807 201.659 114.06C202.261 114.313 202.883 114.593 203.041 114.682C203.199 114.77 203.494 114.893 203.697 114.955C203.913 115.02 203.155 115.076 201.878 115.088C200.673 115.099 199.163 115.134 198.521 115.165C197.878 115.196 192.887 115.258 187.428 115.303L177.504 115.386L173.585 111.556ZM185.166 106.417C185.266 106.296 185.381 106.198 185.421 106.198C185.461 106.198 185.412 106.296 185.312 106.417C185.212 106.537 185.098 106.635 185.058 106.635C185.017 106.635 185.066 106.537 185.166 106.417ZM187.064 104.229C187.164 104.109 187.278 104.011 187.318 104.011C187.358 104.011 187.309 104.109 187.21 104.229C187.11 104.35 186.995 104.448 186.955 104.448C186.915 104.448 186.964 104.35 187.064 104.229ZM191.004 99.7092C191.104 99.5889 191.219 99.4905 191.259 99.4905C191.299 99.4905 191.25 99.5889 191.15 99.7092C191.05 99.8295 190.936 99.9279 190.896 99.9279C190.855 99.9279 190.904 99.8295 191.004 99.7092ZM200.862 97.7784C200.807 97.3968 200.672 96.6253 200.563 96.064C200.453 95.5026 200.192 94.0591 199.984 92.8561C199.775 91.6532 199.552 90.5724 199.487 90.4545C199.405 90.3035 199.633 89.933 200.259 89.2046C203.95 84.9053 205.222 83.4629 205.274 83.5151C205.307 83.5483 205.71 84.22 206.17 85.0079C208.914 89.7106 210.217 91.9064 210.585 92.4461C210.814 92.7819 210.951 93.0848 210.891 93.1192C210.335 93.4348 206.97 95.2381 203.629 97.0114C202.987 97.3522 202.124 97.8203 201.712 98.0516L200.962 98.4721L200.862 97.7784ZM193.923 96.3556C194.023 96.2353 194.138 96.1369 194.178 96.1369C194.218 96.1369 194.169 96.2353 194.069 96.3556C193.969 96.4759 193.855 96.5743 193.815 96.5743C193.774 96.5743 193.823 96.4759 193.923 96.3556ZM194.945 95.1891C195.045 95.0688 195.159 94.9704 195.2 94.9704C195.24 94.9704 195.191 95.0688 195.091 95.1891C194.991 95.3094 194.876 95.4078 194.836 95.4078C194.796 95.4078 194.845 95.3094 194.945 95.1891ZM156.036 94.2664C155.386 93.9719 154.565 93.6061 154.211 93.4534C153.858 93.3008 152.714 92.8024 151.671 92.3458C150.627 91.8892 149.481 91.3908 149.124 91.2381C148.766 91.0855 148.132 90.7966 147.714 90.5961L146.955 90.2315L148.852 86.7321C149.896 84.8074 151.064 82.6403 151.447 81.9164L152.145 80.6002L153.255 81.6248C153.865 82.1883 155.237 83.4678 156.305 84.468L158.245 86.2866L158.072 88.1862C157.977 89.2309 157.815 91.152 157.712 92.4552C157.596 93.9144 157.465 94.8202 157.37 94.8132C157.286 94.8069 156.685 94.5608 156.036 94.2664ZM195.821 94.1684C195.921 94.0481 196.035 93.9497 196.075 93.9497C196.115 93.9497 196.066 94.0481 195.967 94.1684C195.867 94.2887 195.752 94.3871 195.712 94.3871C195.672 94.3871 195.721 94.2887 195.821 94.1684ZM197.864 91.8355C197.964 91.7152 198.078 91.6167 198.119 91.6167C198.159 91.6167 198.11 91.7152 198.01 91.8355C197.91 91.9557 197.795 92.0542 197.755 92.0542C197.715 92.0542 197.764 91.9557 197.864 91.8355ZM158.323 84.7029C158.317 84.5492 158.351 84.4631 158.4 84.5115C158.448 84.56 158.453 84.6857 158.411 84.791C158.364 84.9073 158.33 84.8727 158.323 84.7029H158.323ZM158.469 82.9532C158.463 82.7994 158.497 82.7133 158.546 82.7618C158.594 82.8102 158.599 82.936 158.557 83.0413C158.51 83.1576 158.476 83.123 158.469 82.9532H158.469ZM158.615 81.6409C158.608 81.4872 158.643 81.401 158.691 81.4495C158.74 81.4979 158.745 81.6237 158.703 81.729C158.656 81.8453 158.622 81.8107 158.615 81.6409H158.615ZM150.273 78.9677L149.919 78.5667L150.321 78.9202C150.696 79.2506 150.789 79.3686 150.674 79.3686C150.648 79.3686 150.468 79.1882 150.273 78.9677ZM147.862 76.7076L147.584 76.3795L147.912 76.6573C148.221 76.9183 148.307 77.0357 148.19 77.0357C148.163 77.0357 148.015 76.888 147.862 76.7076ZM145.673 74.6663L145.395 74.3382L145.723 74.6159C146.032 74.877 146.118 74.9943 146.001 74.9943C145.974 74.9943 145.826 74.8467 145.673 74.6663ZM159.21 74.7027C159.21 74.5022 159.243 74.4202 159.284 74.5204C159.324 74.6207 159.324 74.7847 159.284 74.885C159.243 74.9852 159.21 74.9032 159.21 74.7027ZM143.559 72.6978L143.206 72.2968L143.607 72.6503C143.982 72.9807 144.075 73.0988 143.961 73.0988C143.935 73.0988 143.754 72.9183 143.559 72.6978ZM159.491 71.4341C159.484 71.2804 159.519 71.1943 159.567 71.2427C159.616 71.2912 159.621 71.417 159.579 71.5222C159.532 71.6385 159.498 71.604 159.491 71.4341H159.491ZM141.44 70.7294L141.162 70.4013L141.491 70.6791C141.799 70.9401 141.885 71.0574 141.769 71.0574C141.741 71.0574 141.593 70.9098 141.44 70.7294ZM159.636 69.5386C159.63 69.3849 159.665 69.2988 159.713 69.3472C159.762 69.3957 159.767 69.5214 159.725 69.6267C159.678 69.743 159.643 69.7084 159.636 69.5386H159.636ZM159.782 67.7889C159.776 67.6351 159.811 67.549 159.859 67.5975C159.908 67.6459 159.913 67.7717 159.871 67.8769C159.824 67.9933 159.789 67.9587 159.782 67.7889H159.782ZM159.928 66.4766C159.922 66.3228 159.957 66.2367 160.005 66.2852C160.054 66.3336 160.059 66.4594 160.017 66.5646C159.97 66.681 159.935 66.6464 159.928 66.4766H159.928ZM200.929 65.3669C200.648 65.3007 199.433 65.1089 198.229 64.9407C197.025 64.7725 195.619 64.5703 195.104 64.4914C194.59 64.4125 194.136 64.381 194.095 64.4216C194.054 64.4621 193.112 62.9699 192.001 61.1055C190.89 59.2411 189.915 57.6939 189.836 57.6672C189.756 57.6404 189.691 57.5398 189.691 57.4434C189.691 57.264 189.361 56.703 183.107 46.249C181.109 42.9095 179.474 40.1373 179.474 40.0885C179.474 39.864 179.875 40.0584 180.87 40.7653C181.463 41.1863 182.838 42.1541 183.926 42.916C185.013 43.6779 186.509 44.7315 187.25 45.2574C188.787 46.3491 194.47 50.3455 197.958 52.7874C199.523 53.8831 200.34 54.5468 200.392 54.7641C200.436 54.944 200.838 57.3221 201.286 60.0487C201.735 62.7754 202.127 65.1211 202.158 65.2615C202.222 65.5472 201.835 65.5805 200.929 65.3669ZM160.266 62.5853C160.322 61.6714 160.46 60.0378 160.572 58.9552C160.775 56.9992 160.918 55.2201 160.969 54.0341C160.984 53.6932 161.021 53.4144 161.053 53.4144C161.152 53.4144 167.787 54.4355 169.663 54.7395C170.649 54.8993 171.53 54.9844 171.62 54.9287C171.71 54.873 171.754 54.8868 171.718 54.9593C171.682 55.0318 171.209 56.0098 170.667 57.1325C170.125 58.2553 169.307 59.9284 168.849 60.8507L168.017 62.5275L166.922 62.7681C166.32 62.9004 164.711 63.2493 163.347 63.5433C161.982 63.8374 160.708 64.116 160.515 64.1625L160.164 64.2471L160.266 62.5853Z" fill="#F8B62A"/>
<path d="M153.929 112.146C153.356 110.358 152.429 107.452 151.87 105.687C151.31 103.923 150.764 102.217 150.656 101.896C150.548 101.576 150.295 100.788 150.093 100.147C149.334 97.7357 148.039 93.6722 147.514 92.0542C147.215 91.1319 146.983 90.3604 146.999 90.3396C147.014 90.3188 147.481 90.5035 148.035 90.75C149.355 91.3367 149.601 91.4448 151.671 92.347C152.634 92.767 153.685 93.2265 154.006 93.3681C154.327 93.5098 155.312 93.9328 156.195 94.3082C158.353 95.2259 160.245 96.0438 163.128 97.306C164.452 97.8859 165.799 98.4753 166.12 98.6159C166.441 98.7565 167.492 99.2157 168.455 99.6363C170.386 100.479 170.382 100.478 173.709 101.935C174.994 102.498 176.366 103.097 176.76 103.267C177.154 103.438 177.449 103.601 177.417 103.632C177.384 103.662 176.57 104.097 175.606 104.599C174.643 105.101 172.279 106.346 170.352 107.365C168.426 108.384 165.799 109.761 164.514 110.424C163.23 111.087 161.916 111.776 161.595 111.956C161.274 112.135 159.652 112.983 157.991 113.839L154.971 115.396L153.929 112.146ZM203.118 114.73C202.917 114.615 202.261 114.314 201.659 114.06C201.057 113.807 200.301 113.484 199.98 113.344C199.079 112.948 194.758 111.066 193.048 110.324C192.205 109.959 191.252 109.545 190.931 109.405C190.61 109.264 189.559 108.806 188.596 108.385C187.633 107.965 186.498 107.465 186.074 107.274C185.65 107.083 185.24 106.927 185.162 106.927C184.775 106.927 184.428 107.344 192.975 97.5292C196.426 93.5653 199.315 90.3397 199.394 90.3612C199.473 90.3827 199.584 90.6576 199.64 90.972C200.14 93.7836 200.534 95.9461 200.86 97.6679C201.484 100.973 202.609 107.145 203.557 112.468C203.707 113.31 203.875 114.212 203.93 114.473C204.015 114.875 203.989 114.946 203.757 114.943C203.606 114.94 203.319 114.845 203.118 114.73ZM210.222 91.8719C209.864 91.2905 208.993 89.8306 208.288 88.6276C206.95 86.3439 206.148 84.9895 203.865 81.1573C203.111 79.8929 202.185 78.3334 201.807 77.6918C201.429 77.0502 200.673 75.7708 200.127 74.8485C199.582 73.9263 198.709 72.4499 198.189 71.5678C197.668 70.6856 196.912 69.4061 196.51 68.7245C194.766 65.7752 194.041 64.4759 194.103 64.4141C194.139 64.3777 194.59 64.4124 195.104 64.4912C195.619 64.57 196.992 64.7665 198.156 64.9279C199.32 65.0893 200.425 65.2574 200.611 65.3016C200.798 65.3458 201.718 65.475 202.655 65.5888C203.592 65.7026 205.705 65.9969 207.351 66.2428C208.996 66.4888 210.999 66.7815 211.802 66.8934C217.146 67.6379 218.823 67.8986 218.935 68.0019C219.007 68.0677 218.892 68.6522 218.673 69.3332C217.848 71.897 215.321 79.6643 214.79 81.2642C214.484 82.1864 213.502 85.1883 212.608 87.935C211.714 90.6817 210.958 92.929 210.928 92.929C210.899 92.929 210.581 92.4533 210.222 91.8719ZM156.85 84.981C156.089 84.2585 154.743 83.0044 153.86 82.1941C152.977 81.3838 149.409 78.0724 145.93 74.8356L139.606 68.9504L139.932 68.6865C140.202 68.4686 150.818 60.7899 152.599 59.5254C152.891 59.3178 154.829 57.9187 156.904 56.4162C158.98 54.9138 160.756 53.6548 160.851 53.6185C161.028 53.5506 160.878 56.252 160.518 59.6113C160.432 60.4133 160.293 62.1521 160.209 63.4753C160.125 64.7985 160.024 66.0452 159.986 66.2457C159.948 66.4462 159.788 68.185 159.631 70.1097C159.223 75.1015 158.932 78.4897 158.667 81.3371C158.54 82.7004 158.391 84.3736 158.336 85.0553L158.235 86.2946L156.85 84.981ZM168.215 62.1994C168.445 61.7668 171.702 54.9993 172.654 52.9769C173.128 51.9681 174.048 50.0683 177.61 42.7337C178.515 40.87 179.012 40.0014 179.17 40.0049C179.385 40.0097 180.159 41.2729 187.868 54.2148C188.87 55.898 189.691 57.3428 189.691 57.4254C189.691 57.5857 188.867 57.7965 183.707 58.9574C181.901 59.3637 180.029 59.7897 179.547 59.904C179.066 60.0184 177.785 60.3122 176.701 60.5569C175.617 60.8017 174.173 61.1307 173.49 61.2881C167.615 62.6434 168.016 62.574 168.215 62.1994Z" fill="#0D283A"/>
<path d="M101.948 167.882C100.756 167.473 100.011 166.211 100.001 164.984C99.9678 163.773 100.615 162.528 101.721 161.983C102.604 161.63 103.909 161.392 104.601 162.019C104.854 162.358 104.47 162.838 104.077 162.694C103.445 162.57 102.746 162.55 102.174 162.89C101.485 163.334 101.147 164.194 101.183 164.994C101.206 165.726 101.588 166.454 102.236 166.82C102.58 167.048 103.003 167.131 103.409 167.063C103.727 167.035 104.048 166.949 104.368 166.983C104.663 167.075 104.813 167.559 104.492 167.714C104.096 167.978 103.596 168.032 103.136 167.94C102.74 167.919 102.34 167.953 101.948 167.882Z" fill="#0B0A0B"/>
<path d="M109.807 161.668C108.033 161.497 106.662 163.321 106.846 164.992C106.834 166.504 108.017 168.059 109.625 167.988C111.231 168.092 112.746 166.784 112.808 165.162C113.002 163.429 111.707 161.471 109.807 161.668ZM109.865 162.524C111.682 162.769 112.163 165.249 111.067 166.509C109.99 167.808 107.931 166.773 108.087 165.167C107.972 164.042 108.491 162.466 109.865 162.524Z" fill="#0B0A0B"/>
<path d="M123.726 167.838C123.351 167.81 123.266 167.331 123.386 167.041C123.536 166.692 123.932 166.852 124.182 166.977C124.74 167.167 125.439 167.196 125.91 166.788C126.16 166.595 126.217 166.233 126.063 165.964C125.825 165.483 125.291 165.286 124.818 165.114C124.236 164.892 123.712 164.434 123.509 163.835C123.283 163.078 123.695 162.172 124.446 161.892C125.196 161.586 126.076 161.559 126.815 161.911C127.164 162.164 126.904 162.823 126.476 162.759C126.073 162.683 125.669 162.439 125.253 162.58C124.705 162.599 124.365 163.353 124.741 163.763C125.161 164.248 125.853 164.29 126.363 164.64C127.009 165.027 127.463 165.825 127.263 166.581C127.034 167.405 126.176 168.017 125.318 167.921C124.787 167.947 124.249 167.946 123.726 167.838Z" fill="#0B0A0B"/>
<path d="M131.151 167.878C129.631 167.095 129.914 164.915 129.911 163.817V161.779H130.451H130.991L131.064 163.916C131.105 165.091 131.175 166.177 131.22 166.33C131.318 166.658 131.993 167.106 132.391 167.106C132.752 167.106 133.466 166.665 133.663 166.32C133.761 166.15 133.84 165.284 133.879 163.947L133.941 161.841H134.499H135.057L135.09 164.845L135.123 167.849H134.563C134.021 167.849 134.003 167.837 134.003 167.472V167.094L133.499 167.499C133.057 167.853 132.891 167.908 132.166 167.936C131.71 167.954 131.253 167.928 131.151 167.878Z" fill="#0B0A0B"/>
<path d="M143.474 167.851C143.328 167.792 143.077 167.559 142.915 167.332C142.639 166.944 142.619 166.798 142.582 164.852L142.543 162.784L141.709 162.746L141.679 161.779H142.559V161.112C142.559 160.382 142.659 160.243 143.267 160.128L143.664 160.053L143.701 160.885L143.737 161.717L144.512 161.754L145.287 161.79V162.28V162.77H144.481H143.675V164.303C143.675 165.146 143.709 166.006 143.751 166.214C143.868 166.8 144.226 167.106 144.796 167.106C145.255 167.106 145.287 167.129 145.287 167.464C145.287 167.677 145.207 167.853 145.091 167.898C144.809 168.006 143.784 167.976 143.474 167.851Z" fill="#0B0A0B"/>
<path d="M150.411 161.656C148.432 161.483 146.867 163.605 147.314 165.47C147.517 166.87 148.77 168.128 150.246 167.989C151.863 168.074 153.252 166.671 153.279 165.081C153.429 163.413 152.222 161.587 150.411 161.656ZM150.322 162.535C152.112 162.715 152.445 165.167 151.588 166.429C150.698 167.675 148.757 167.012 148.527 165.596C148.156 164.334 148.834 162.584 150.322 162.535Z" fill="#0B0A0B"/>
<path d="M167.237 161.718C166.708 161.747 166.13 161.752 165.687 162.085C165.465 162.306 165.541 162.928 165.932 162.846C166.406 162.702 166.877 162.505 167.383 162.525C167.844 162.52 168.317 162.751 168.518 163.18C168.692 163.44 168.856 163.971 168.38 163.995C167.503 164.034 166.584 164.179 165.857 164.707C165.403 164.993 165.149 165.515 165.118 166.04C165.082 166.556 165.196 167.111 165.573 167.488C165.784 167.718 166.055 167.912 166.378 167.923C166.772 167.95 167.171 167.949 167.565 167.909C167.917 167.866 168.252 167.708 168.498 167.451C168.693 167.292 168.942 167.472 168.867 167.701C169.002 167.934 169.312 167.825 169.533 167.851C169.636 167.851 169.738 167.851 169.841 167.851C169.822 166.376 169.897 164.897 169.752 163.427C169.687 162.886 169.449 162.34 168.984 162.029C168.657 161.773 168.231 161.707 167.827 161.721C167.63 161.717 167.433 161.719 167.237 161.718V161.718ZM168.756 164.715C168.698 165.259 168.743 165.824 168.578 166.35C168.409 166.672 168.087 166.895 167.759 167.032C167.365 167.154 166.899 167.142 166.548 166.913C166.077 166.506 166.17 165.687 166.647 165.32C167.239 164.848 168.04 164.825 168.756 164.715Z" fill="#0B0A0B"/>
<path d="M190.303 167.881C189.616 167.612 189.433 166.941 189.433 164.694V162.77H188.999C188.575 162.77 188.565 162.758 188.565 162.274C188.565 161.79 188.575 161.779 188.999 161.779H189.433V161.112C189.433 160.381 189.533 160.243 190.146 160.127L190.549 160.05V160.915V161.779H191.363H192.176L192.138 162.243L192.099 162.708L191.324 162.745L190.549 162.782V164.516C190.549 165.825 190.595 166.34 190.738 166.615C190.933 166.993 191.368 167.18 191.791 167.069C192.006 167.013 192.037 167.067 192.037 167.489V167.973L191.262 167.963C190.836 167.958 190.405 167.921 190.303 167.881V167.881Z" fill="#0B0A0B"/>
<path d="M196.913 161.656C195.382 161.644 194.206 163.11 194.161 164.568C193.922 166.062 194.889 167.833 196.518 167.933C197.26 167.964 198.041 167.97 198.752 167.867C199.477 167.338 198.641 166.616 197.997 167.028C197.009 167.247 195.755 166.942 195.378 165.903C194.991 164.861 196.388 165.167 196.983 165.13C197.815 165.127 198.647 165.119 199.478 165.126C199.595 163.937 199.317 162.539 198.185 161.917C197.804 161.696 197.35 161.599 196.913 161.656V161.656ZM196.944 162.524C197.8 162.314 198.971 163.984 197.952 164.264C197.159 164.137 196.282 164.421 195.558 164.148C194.979 163.4 196.283 162.508 196.944 162.524Z" fill="#0B0A0B"/>
<path d="M217.598 161.652C217.212 161.661 216.821 161.724 216.471 161.85C215.928 162.045 215.847 162.119 215.847 162.415C215.847 162.876 215.986 162.932 216.614 162.713C217.429 162.43 218.048 162.468 218.532 162.837C218.861 163.088 218.947 163.241 218.947 163.58V164.01H218.323C217.486 164.01 216.445 164.392 215.909 164.897C215.096 165.663 215.207 167.168 216.118 167.723C216.675 168.062 217.701 168.059 218.412 167.715C218.706 167.573 218.952 167.392 218.958 167.312C218.965 167.233 219.008 167.309 219.055 167.479C219.127 167.74 219.226 167.795 219.679 167.827L220.218 167.866L220.164 165.535C220.1 162.93 220.027 162.668 219.237 162.067C218.864 161.782 218.241 161.639 217.598 161.652V161.652ZM218.66 164.753C218.931 164.753 218.947 164.798 218.947 165.547C218.947 166.271 218.91 166.378 218.563 166.724C218.244 167.043 218.085 167.107 217.591 167.107C216.835 167.107 216.591 166.857 216.591 166.093C216.591 165.716 216.662 165.472 216.808 165.342C217.052 165.125 218.221 164.753 218.66 164.753Z" fill="#0B0A0B"/>
<path d="M224.612 167.847C223.961 167.61 223.397 167.122 223.078 166.508C222.721 165.719 222.705 164.817 222.838 163.974C222.932 163.413 223.232 162.901 223.661 162.529C224.465 161.794 225.618 161.538 226.679 161.693C226.971 161.73 227.323 161.806 227.469 162.09C227.563 162.368 227.406 162.856 227.046 162.794C226.656 162.712 226.268 162.571 225.862 162.614C225.293 162.642 224.774 162.936 224.385 163.339C224.098 163.559 223.998 163.914 223.987 164.259C223.957 164.731 223.959 165.209 224.015 165.678C224.202 166.457 224.978 166.956 225.733 167.075C226.203 167.156 226.696 167.059 227.101 166.81C227.431 166.799 227.541 167.278 227.472 167.539C227.381 167.822 227.069 167.885 226.809 167.9C226.125 167.972 225.43 167.96 224.748 167.878C224.702 167.87 224.656 167.86 224.612 167.847Z" fill="#0B0A0B"/>
<path d="M236.924 161.649C235.222 161.541 233.696 163.138 233.819 164.826C233.764 166.128 234.584 167.578 235.898 167.902C236.974 168.029 238.253 167.997 238.996 167.077C240.064 165.839 240.073 163.781 239.001 162.542C238.478 161.962 237.697 161.663 236.924 161.649H236.924ZM236.796 162.531C238.124 162.55 238.746 164.072 238.54 165.22C238.527 166.284 237.569 167.436 236.433 167.064C234.593 166.451 234.493 163.511 236.194 162.668C236.383 162.582 236.589 162.536 236.796 162.531Z" fill="#0B0A0B"/>
<path d="M252.63 161.645C251.991 161.643 251.331 161.779 250.8 162.15C250.642 162.372 250.764 162.933 251.091 162.854C251.446 162.754 251.781 162.578 252.155 162.541C252.693 162.45 253.356 162.579 253.638 163.095C253.766 163.323 253.819 163.597 253.764 163.854C253.52 164.074 253.164 163.99 252.866 164.049C251.982 164.129 251.038 164.442 250.505 165.195C250.034 165.873 250.126 166.844 250.653 167.464C250.86 167.739 251.18 167.956 251.538 167.929C252.06 167.946 252.593 167.947 253.103 167.821C253.45 167.7 253.694 167.411 253.978 167.192C254.033 167.399 253.952 167.72 254.193 167.817C254.462 167.883 254.744 167.838 255.018 167.851C255.252 167.873 255.024 167.467 255.082 167.323C255.001 166.088 255.028 164.847 254.899 163.616C254.837 163.006 254.627 162.34 254.071 162.007C253.645 161.734 253.128 161.646 252.63 161.645ZM253.823 164.715C253.778 165.267 253.798 165.829 253.68 166.372C253.502 166.836 252.983 167.079 252.513 167.118C252.08 167.162 251.612 166.968 251.418 166.562C251.198 166.154 251.42 165.674 251.711 165.366C252.11 164.969 252.702 164.91 253.228 164.808C253.427 164.776 253.625 164.747 253.823 164.715Z" fill="#0B0A0B"/>
<path d="M115.402 164.814V161.779H115.898C116.387 161.779 116.394 161.785 116.394 162.235V162.692L116.735 162.373C117.25 161.892 117.809 161.655 118.426 161.655C119.101 161.655 119.487 161.791 119.891 162.172C120.539 162.784 120.61 163.121 120.61 165.576V167.849H120.052H119.494V165.847C119.494 163.491 119.359 162.991 118.657 162.76C118.109 162.579 117.505 162.7 117.061 163.081L116.704 163.388L116.663 165.619L116.622 167.849H116.012H115.402V164.814Z" fill="#0B0A0B"/>
<path d="M138.124 163.42L138.157 158.991L138.746 158.953L139.335 158.916V163.382V167.849H138.713H138.092L138.124 163.42Z" fill="#0B0A0B"/>
<path d="M155.828 164.813C155.828 163.797 155.828 162.781 155.828 161.764C156.171 161.843 156.661 161.688 156.884 162.012C156.968 162.249 156.862 162.915 157.149 162.445C157.531 161.993 158.084 161.588 158.706 161.661C159.055 161.732 158.893 162.196 158.922 162.453C158.987 162.882 158.46 162.724 158.213 162.817C157.78 162.955 157.352 163.279 157.233 163.732C157.056 164.759 157.084 165.807 157.035 166.844C156.935 167.172 157.241 167.893 156.711 167.806C156.451 167.761 155.947 167.975 155.828 167.779C155.828 166.791 155.828 165.802 155.828 164.813Z" fill="#0B0A0B"/>
<path d="M161.284 164.814V161.778H161.842H162.4V164.814V167.849H161.842H161.284V164.814Z" fill="#0B0A0B"/>
<path d="M176.785 164.807V161.765L177.374 161.802L177.963 161.84L177.996 164.844L178.029 167.849H177.407H176.785V164.807Z" fill="#0B0A0B"/>
<path d="M181.001 164.813V161.778H181.497C181.965 161.778 181.993 161.799 181.993 162.15C181.993 162.354 182.024 162.522 182.062 162.522C182.76 161.969 183.456 161.717 184.056 161.716C184.955 161.667 185.517 162.043 185.913 162.77C186.194 163.295 186.209 163.438 186.209 165.586V167.849H185.663H185.117L185.074 165.65C185.033 163.538 185.019 163.437 184.735 163.116C184.21 162.523 183.271 162.516 182.638 163.102L182.303 163.412L182.264 165.63L182.225 167.849H181.613H181.001V164.813V164.813Z" fill="#0B0A0B"/>
<path d="M202.179 165.557C202.165 164.296 202.151 162.944 202.148 162.553L202.144 161.84L202.609 161.802C203.045 161.766 203.074 161.785 203.076 162.112C203.077 162.303 203.132 162.543 203.198 162.646C203.301 162.804 203.318 162.8 203.32 162.615C203.323 162.288 204.276 161.654 204.766 161.654C205.176 161.654 205.182 161.662 205.182 162.212C205.182 162.762 205.176 162.769 204.765 162.769C204.529 162.769 204.204 162.882 204.018 163.028C203.399 163.515 203.322 163.834 203.322 165.922V167.849H202.764H202.206L202.179 165.557V165.557Z" fill="#0B0A0B"/>
<path d="M207.538 164.814V161.778H208.034C208.44 161.778 208.53 161.821 208.53 162.016C208.53 162.147 208.565 162.344 208.607 162.455C208.676 162.633 208.705 162.628 208.857 162.411C209.184 161.945 210.051 161.616 210.793 161.678C211.625 161.747 212.103 162.067 212.47 162.803C212.725 163.312 212.746 163.527 212.746 165.601V167.849H212.2H211.654L211.611 165.608L211.602 163.435L211.163 163.007C210.546 162.404 209.561 162.568 209.057 163.305C208.795 163.689 208.778 163.841 208.778 165.781V167.849H208.158H207.538V164.813V164.814Z" fill="#0B0A0B"/>
<path d="M230.012 164.844L230.045 161.84H230.603H231.161L231.194 164.844L231.227 167.849H230.603H229.978L230.012 164.844Z" fill="#0B0A0B"/>
<path d="M242.383 164.813V161.764L242.91 161.802C243.383 161.836 243.442 161.877 243.499 162.203C243.56 162.558 243.567 162.561 243.793 162.335C244.468 161.66 245.828 161.426 246.482 161.872C247.514 162.575 247.716 163.228 247.716 165.859V167.849H247.096H246.476L246.474 165.959C246.473 163.218 246.262 162.707 245.129 162.707C244.508 162.707 243.963 163.01 243.792 163.451C243.739 163.587 243.665 164.618 243.628 165.743L243.561 167.787L242.972 167.825L242.383 167.862V164.813H242.383Z" fill="#0B0A0B"/>
<path d="M258.008 163.389V158.929H258.504H259V163.389V167.849H258.504H258.008V163.389Z" fill="#0B0A0B"/>
<path d="M161.325 160.464C161.067 160.193 161.22 159.727 161.526 159.562C161.818 159.372 162.268 159.364 162.484 159.673C162.701 159.988 162.616 160.468 162.288 160.674C162.013 160.877 161.591 160.82 161.385 160.546C161.363 160.52 161.343 160.492 161.325 160.464Z" fill="#0B0A0B"/>
<path d="M176.793 160.436C176.631 160.111 176.703 159.615 177.078 159.476C177.359 159.374 177.757 159.402 177.932 159.674C178.058 159.909 178.041 160.195 177.982 160.446C177.862 160.768 177.467 160.828 177.168 160.779C176.991 160.747 176.833 160.616 176.793 160.436Z" fill="#0B0A0B"/>
<path d="M230.024 160.464C229.834 160.173 229.831 160.105 229.994 159.813C230.358 159.161 231.332 159.381 231.343 160.118C231.353 160.772 230.392 161.024 230.024 160.464Z" fill="#0B0A0B"/>
<path d="M101.018 129.322C101.018 137.67 101.018 146.018 101.018 154.366C104.635 154.333 108.252 154.299 111.868 154.266C113.983 153.579 116.131 152.758 117.724 151.146C119.169 149.847 120.361 148.266 121.051 146.438C122.062 144.231 122.035 141.692 121.663 139.337C121.329 137.715 120.631 136.163 119.743 134.773C118.147 132.656 116.023 130.9 113.507 130.001C111.425 129.164 109.141 129.395 106.947 129.329C104.971 129.323 102.994 129.325 101.018 129.322ZM105.234 133.507C107.288 133.587 109.363 133.457 111.398 133.789C112.529 134.086 113.518 134.555 114.421 135.277C115.938 136.483 117.102 138.201 117.493 140.107C117.693 142.053 117.704 144.162 116.616 145.873C115.498 147.955 113.439 149.486 111.129 149.974C109.17 150.154 107.199 150.102 105.234 150.162C105.234 144.61 105.234 139.059 105.234 133.507Z" fill="#0B0A0B"/>
<path d="M141.153 129.291C139.774 129.289 138.256 129.5 137.104 129.88C134.446 130.714 132.725 132.114 130.717 134.529C130.513 134.832 130.308 135.111 130.264 135.145C130.152 135.232 129.392 136.73 129.194 137.251C128.56 138.929 128.494 139.349 128.489 141.773C128.485 144.189 128.617 145.105 129.136 146.294C129.621 147.405 129.738 147.643 130.148 148.339C130.389 148.747 130.699 149.215 130.838 149.38C132.551 151.424 134.171 152.646 136.503 153.654C136.752 153.762 137.048 153.852 137.162 153.852C137.275 153.852 137.475 153.909 137.607 153.979C137.74 154.05 138.169 154.157 138.561 154.219C139.744 154.406 143.246 154.291 144.11 154.037C145.541 153.618 147.275 152.856 147.644 152.485C147.678 152.451 147.954 152.256 148.256 152.051C149.188 151.423 150.821 149.703 151.515 148.621C152.241 147.49 152.728 146.548 152.728 146.271C152.728 146.173 152.776 146.042 152.837 145.977C152.953 145.854 153.151 145.101 153.368 143.941C153.521 143.122 153.43 139.451 153.244 138.923C153.172 138.719 152.989 138.189 152.837 137.746C152.057 135.471 150.437 133.309 148.33 131.73C146.723 130.548 144.885 129.769 142.901 129.43C142.379 129.338 141.78 129.292 141.153 129.291ZM141.107 133.565C141.253 133.568 141.401 133.578 141.548 133.588C142.735 133.672 143.547 133.891 144.606 134.425C146.693 135.475 148.214 137.304 148.954 139.651C149.269 140.65 149.267 143.086 148.95 144.065C148.653 144.982 147.905 146.542 147.76 146.542C147.696 146.542 147.644 146.61 147.644 146.697C147.644 146.882 146.168 148.341 145.536 148.78C144.947 149.189 144.371 149.467 143.498 149.763C142.222 150.196 139.445 150.193 138.309 149.759C136.857 149.205 136.016 148.675 135.058 147.708C134.032 146.672 133.473 145.78 132.973 144.378C132.748 143.747 132.705 143.358 132.705 141.897C132.705 140.393 132.747 140.047 133.004 139.295C133.51 137.813 134.101 136.91 135.329 135.753C136.891 134.28 138.912 133.518 141.107 133.565L141.107 133.565Z" fill="#0B0A0B"/>
<path d="M160.664 141.964C160.664 135.154 160.709 129.555 160.765 129.521C160.82 129.486 163.624 132.215 166.995 135.584C170.367 138.953 173.177 141.709 173.241 141.709C173.304 141.709 176.14 138.935 179.542 135.546C182.944 132.156 185.752 129.359 185.782 129.331C185.813 129.302 185.837 134.92 185.837 141.815V154.351L183.698 154.317L181.559 154.283L181.527 147.005C181.509 143.002 181.46 139.727 181.417 139.727C181.374 139.727 179.6 141.469 177.475 143.598C175.349 145.728 173.523 147.54 173.417 147.625C173.252 147.758 172.635 147.192 169.133 143.694C166.882 141.446 165.005 139.644 164.961 139.688C164.916 139.732 164.88 143.048 164.88 147.057V154.345H162.772H160.664V141.964Z" fill="#0B0A0B"/>
<path d="M205.581 129.31C201.194 137.908 197.171 146.174 193.193 154.006L193.041 154.347L195.421 154.339L197.804 154.332L199.807 150.321L211.363 150.255L213.382 154.347H215.731C217.021 154.347 218.079 154.297 218.079 154.239C218.079 154.181 217.931 153.86 217.753 153.526L205.81 129.736L205.581 129.31ZM205.558 138.919C205.635 138.872 209.151 145.76 209.151 145.958L202.082 145.903C202.082 145.735 205.437 138.994 205.558 138.919Z" fill="#0B0A0B"/>
<path d="M225.271 141.833C225.271 134.951 225.306 129.32 225.349 129.32C225.391 129.32 225.656 129.526 225.938 129.776C227.513 131.182 228.448 132.025 228.8 132.356C229.236 132.764 230.918 134.267 231.582 134.841C231.814 135.041 232.188 135.377 232.414 135.586C232.97 136.103 234.754 137.714 235.432 138.312C235.735 138.579 236.161 138.965 236.377 139.169C236.594 139.374 236.932 139.678 237.128 139.846C237.324 140.013 237.823 140.459 238.236 140.837C238.65 141.214 239.425 141.913 239.959 142.39C240.493 142.867 241.159 143.465 241.44 143.718L241.949 144.178L241.981 136.749L242.013 129.32H244.12H246.227V141.833C246.227 148.715 246.202 154.345 246.17 154.345C246.139 154.345 246.013 154.245 245.891 154.123C245.769 154.001 245.226 153.513 244.684 153.039C244.143 152.565 243.52 152.01 243.301 151.806C242.788 151.327 241.273 149.965 240.399 149.198C239.43 148.347 238.798 147.774 238.355 147.346C238.143 147.141 237.777 146.813 237.542 146.617C237.072 146.225 235.344 144.679 234.825 144.187C234.509 143.886 232.576 142.161 231.985 141.651C231.824 141.513 231.406 141.131 231.055 140.803C230.704 140.475 230.208 140.038 229.952 139.832L229.487 139.458V146.902V154.345H227.379H225.271V141.833Z" fill="#0B0A0B"/>
<path d="M254.164 141.833V129.32H256.272H258.38V141.833V154.345H256.272H254.164V141.833Z" fill="#0B0A0B"/>
<path d="M0 13.1436L12.4738 15.4525L13.1219 0H13.9547L13.3005 15.6053L33.5206 19.3477L27.072 0H27.9541L34.4612 19.5199L41.4378 20.8103L46.2546 0H47.1121L42.2614 20.9631L67.5262 25.6388L67.5431 25.5519L69.0179 25.8254L99.8584 31.5308L100.1 30.4882L89.9369 0H90.819L100.46 28.9259L107.035 0.52613L104.195 0H108.973L131.091 4.0932L128.345 0H129.364L132.254 4.31041L155.651 8.63851L152.771 0H153.655L156.59 8.81067L192.474 15.4525L193.122 0H193.955L193.3 15.6053L213.521 19.3477L207.072 0H207.954L214.461 19.5199L221.438 20.8103L226.255 0H227.112L222.261 20.9631L247.526 25.6388L247.543 25.5519L249.018 25.8254L279.858 31.5308L280.1 30.4882L269.937 0H270.819L280.46 28.9259L287.035 0.52613L284.195 0H288.973L311.091 4.0932L308.345 0H309.364L312.254 4.31041L335.65 8.63851L332.772 0H333.655L336.59 8.81067L360 13.1436V14.0285L312.931 5.31922L334.226 37.056L360 16.1668V17.269L334.704 37.7687L360 75.4715V76.9872L334.046 38.3029L320.072 49.6268L306.67 107.533C315.299 133.219 315.577 133.909 315.579 133.917L360 97.9149V99.0154L315.867 134.784L316.347 136.223L322.306 154.101L360 150.669V151.543L322.591 154.951L336.59 196.943L360 201.276V202.161L312.931 193.452L334.226 225.188L360 204.299V205.402L334.704 225.901L360 263.604V265.12L334.046 226.435L320.072 237.759L306.67 295.666C315.299 321.351 315.577 322.041 315.579 322.05L360 286.047V287.148L315.867 322.917L316.347 324.355L322.306 342.234L360 338.802V339.676L322.591 343.082L333.655 376.265H332.772L321.733 343.161L295.115 345.584L293.49 352.609L309.364 376.265H308.345L293.228 353.736L288.054 376.096L288.973 376.265H284.195L269.94 373.63L270.819 376.265H269.937L268.999 373.454L249.018 369.755L229.457 366.137L227.112 376.265H226.255L235.902 334.585L195.553 338.258L195.523 338.979L207.954 376.265H207.072L195.423 341.33L193.955 376.265H193.122L194.681 339.106L194.674 339.077L194.683 339.074L194.714 338.337L142.591 343.082L153.655 376.265H152.771L141.733 343.161L115.115 345.584L113.49 352.609L129.364 376.265H128.345L113.228 353.736L108.054 376.096L108.973 376.265H104.195L89.94 373.63L90.819 376.265H89.9369L88.9994 373.454L69.0179 369.755L49.4566 366.137L47.1121 376.265H46.2546L55.9021 334.585L15.5526 338.258L15.5234 338.979L27.9541 376.265H27.072L15.4233 341.33L13.9547 376.265H13.1219L14.6813 339.106L14.6736 339.077L14.6829 339.074L14.7137 338.337L0 339.676V338.802L46.5794 334.559L39.7429 324.355L9.57358 279.391L0 287.148V286.047L9.09483 278.677L0 265.12V263.604L9.3673 277.565L12.4369 204.462L3.25585 202.763L0 205.402V204.299L2.14748 202.558L0 202.161V201.276L12.4738 203.585L14.6813 150.975L14.6736 150.945L14.6829 150.941L14.7137 150.203L0 151.543V150.669L46.5794 146.427L39.7429 136.223L9.57358 91.2586L0 99.0154V97.9149L9.09483 90.5443L0 76.9872V75.4715L9.3673 89.4325L12.4369 16.3293L3.25585 14.6303L0 17.269V16.1668L2.14748 14.4259L0 14.0285V13.1436ZM69.0179 26.7988L34.7752 20.4644L47.7078 59.2516L69.0179 41.981L84.3026 29.584C76.6626 28.1922 69.0332 26.8037 69.0179 26.7988ZM85.4126 29.7867L69.0179 43.0831L47.9972 60.1188C49.6613 65.1098 67.3507 117.744 69.0179 122.74L73.5129 136.223L74.7614 139.967L75.6265 136.223L99.6613 32.3803C99.6459 32.3771 92.6924 31.1109 85.4126 29.7867ZM294.24 157.532L261.607 160.503L269.626 184.553L287.232 187.812L294.24 157.532ZM288.054 187.964L311.091 192.226L293.228 165.604L288.054 187.964ZM107.232 187.812L114.24 157.532L81.6071 160.503L89.6259 184.553L107.232 187.812ZM89.94 185.495L100.46 217.058L107.035 188.659L89.94 185.495ZM235.902 146.452L195.553 150.129L195.523 150.846L214.461 207.652L221.438 208.943L235.902 146.452ZM222.261 209.096L247.526 213.771L247.543 213.684L249.018 213.958L279.858 219.663L280.1 218.621L268.999 185.322L249.018 181.624L229.457 178.004L222.261 209.096ZM195.423 153.196L193.3 203.738L213.521 207.48L195.423 153.196ZM194.681 150.975L194.674 150.945L194.683 150.941L194.714 150.203L142.591 154.951L156.59 196.943L192.474 203.585L194.681 150.975ZM132.931 193.452L154.226 225.188L182.147 202.558L132.931 193.452ZM155.651 196.771L141.733 155.028L115.115 157.451L113.49 164.476L132.254 192.443L155.651 196.771ZM135.631 137.064L135.353 136.223L126.308 109.097L120.029 136.223L115.323 156.558L141.45 154.179L135.733 137.026L135.631 137.064ZM113.228 165.604L108.054 187.964L131.091 192.226L113.228 165.604ZM114.447 156.639L119.172 136.223L125.802 107.577L113.627 71.0613L86.4717 93.0735L76.484 136.223L75.2679 141.486L81.3239 159.654L114.447 156.639ZM126.162 106.016L139.018 50.4844L114.321 70.4982L126.162 106.016ZM126.67 107.533C135.299 133.219 135.577 133.909 135.579 133.917L189.095 90.5443L154.046 38.3029L140.074 49.6268L126.67 107.533ZM135.867 134.784L136.347 136.223L142.306 154.101L226.579 146.427L219.743 136.223L189.574 91.2586L135.867 134.784ZM220.76 136.223L227.777 146.317L236.108 145.559L238.27 136.223L244.086 111.02L227.301 60.6819L190.232 90.7228L220.76 136.223ZM239.126 136.223L229.652 177.156L249.018 180.738L268.685 184.379L252.629 136.223C249.447 126.942 249.018 125.813 249.018 125.813L244.601 112.571L239.126 136.223ZM261.324 159.654L294.447 156.639L299.172 136.223L305.802 107.577L293.627 71.0613L266.472 93.0735L256.484 136.223L255.268 141.486L261.324 159.654ZM269.94 185.495L280.46 217.058L287.035 188.659L269.94 185.495ZM280.483 220.664L266.787 279.843L293.339 258.325L280.802 220.724L280.483 220.664ZM279.661 220.513C279.646 220.51 272.692 219.243 265.413 217.919L249.018 231.216L227.997 248.251C229.661 253.242 247.351 305.876 249.018 310.872L253.513 324.355L254.761 328.099L255.627 324.355L279.661 220.513ZM249.018 230.114L264.303 217.716C256.663 216.325 249.033 214.936 249.018 214.931L214.775 208.597L227.708 247.384L249.018 230.114ZM213.835 208.423L193.265 204.616L190.194 277.787L227.012 247.947L213.835 208.423ZM192.437 204.462L183.256 202.763L154.704 225.901L189.367 277.565L192.437 204.462ZM154.046 226.435L140.074 237.759L126.67 295.666C135.299 321.351 135.577 322.041 135.579 322.05L189.095 278.677L154.046 226.435ZM139.018 238.617L114.321 258.631L126.162 294.149L139.018 238.617ZM139.332 237.259L139.349 237.182L139.407 237.196L153.567 225.721L131.767 193.236L107.857 188.812L100.967 218.576L114.033 257.762L139.332 237.259ZM100.802 220.724L100.483 220.664L86.7873 279.843L113.339 258.325L100.802 220.724ZM99.6613 220.513C99.6459 220.51 92.6924 219.243 85.4126 217.919L69.0179 231.216L47.9972 248.251C49.6613 253.242 67.3507 305.876 69.0179 310.872L73.5129 324.355L74.7614 328.099L75.6265 324.355L99.6613 220.513ZM69.0179 230.114L84.3026 217.716C76.6626 216.325 69.0332 214.936 69.0179 214.931L34.7752 208.597L47.7078 247.384L69.0179 230.114ZM67.5262 213.771L67.5431 213.684L69.0179 213.958L99.8584 219.663L100.1 218.621L88.9994 185.322L69.0179 181.624L49.4566 178.004L42.2614 209.096L67.5262 213.771ZM69.0179 180.738L88.6853 184.379L72.6293 136.223C69.4473 126.942 69.0179 125.813 69.0179 125.813L64.6013 112.571L59.1256 136.223L49.6521 177.156L69.0179 180.738ZM100.483 32.5316L86.7873 91.7107L113.339 70.1925L100.802 32.5911L100.483 32.5316ZM131.767 5.10362L107.857 0.678982L100.967 30.4431L114.033 69.6294L139.332 49.1264L139.349 49.0492L139.407 49.0636L153.567 37.5885L131.767 5.10362ZM132.931 5.31922L154.226 37.056L182.147 14.4259L132.931 5.31922ZM183.256 14.6303L154.704 37.7687L189.367 89.4325L192.437 16.3293L183.256 14.6303ZM213.835 20.2906L193.265 16.4838L190.194 89.6545L227.012 59.8147L213.835 20.2906ZM249.018 26.7988L214.775 20.4644L227.708 59.2516L249.018 41.981L264.303 29.584C256.663 28.1922 249.033 26.8037 249.018 26.7988ZM265.413 29.7867L249.018 43.0831L227.997 60.1188C229.661 65.1098 247.351 117.744 249.018 122.74L253.513 136.223L254.761 139.967L255.627 136.223L279.661 32.3803C279.646 32.3771 272.692 31.1109 265.413 29.7867ZM280.483 32.5316L266.787 91.7107L293.339 70.1925L280.802 32.5911L280.483 32.5316ZM319.349 49.0492L319.407 49.0636L333.565 37.5885L311.767 5.10362L287.857 0.678982L280.967 30.4431L294.033 69.6294L319.332 49.1264L319.349 49.0492ZM319.018 50.4844L294.321 70.4982L306.162 106.016L319.018 50.4844ZM315.733 137.026L315.631 137.064L315.353 136.223L306.308 109.097L300.029 136.223L295.323 156.558L321.45 154.179L315.733 137.026ZM335.65 196.771L321.733 155.028L295.115 157.451L293.49 164.476L312.254 192.443L335.65 196.771ZM319.349 237.182L319.407 237.196L333.565 225.721L311.767 193.236L287.857 188.812L280.967 218.576L294.033 257.762L319.332 237.259L319.349 237.182ZM319.018 238.617L294.321 258.631L306.162 294.149L319.018 238.617ZM321.45 342.311L315.733 325.158L315.631 325.197L315.353 324.355L306.308 297.23L300.029 324.355L295.323 344.691L321.45 342.311ZM299.172 324.355L305.802 295.709L293.627 259.194L266.472 281.206L256.484 324.355L255.268 329.618L261.324 347.786L294.447 344.771L299.172 324.355ZM269.626 372.685L287.232 375.945L294.24 345.664L261.607 348.636L269.626 372.685ZM229.652 365.289L249.018 368.872L268.685 372.511L252.629 324.355C249.447 315.075 249.018 313.945 249.018 313.945L244.601 300.703L239.126 324.355L229.652 365.289ZM236.108 333.692L238.27 324.355L244.086 299.152L227.301 248.814L190.232 278.855L220.76 324.355L227.777 334.45L236.108 333.692ZM142.306 342.234L226.579 334.559L219.743 324.355L189.574 279.391L135.867 322.917L136.347 324.355L142.306 342.234ZM141.45 342.311L135.733 325.158L135.631 325.197L135.353 324.355L126.308 297.23L120.029 324.355L115.323 344.691L141.45 342.311ZM119.172 324.355L125.802 295.709L113.627 259.194L86.4717 281.206L76.484 324.355L75.2679 329.618L81.3239 347.786L114.447 344.771L119.172 324.355ZM89.6259 372.685L107.232 375.945L114.24 345.664L81.6071 348.636L89.6259 372.685ZM49.6521 365.289L69.0179 368.872L88.6853 372.511L72.6293 324.355C69.4473 315.075 69.0179 313.945 69.0179 313.945L64.6013 300.703L59.1256 324.355L49.6521 365.289ZM40.7605 324.355L47.7771 334.45L56.1084 333.692L58.2697 324.355L64.0856 299.152L47.3014 248.814L10.2325 278.855L40.7605 324.355ZM10.194 277.787L47.012 247.947L33.8347 208.423L13.2651 204.616L10.194 277.787ZM13.3005 203.738L33.5206 207.48L15.4233 153.196L13.3005 203.738ZM15.5526 150.129L15.5234 150.846L34.4612 207.652L41.4378 208.943L55.9021 146.452L15.5526 150.129ZM40.7605 136.223L47.7771 146.317L56.1084 145.559L58.2697 136.223L64.0856 111.02L47.3014 60.6819L10.2325 90.7228L40.7605 136.223ZM10.194 89.6545L47.012 59.8147L33.8347 20.2906L13.2651 16.4838L10.194 89.6545Z" fill="url(#paint0_radial_1802_879)"/>
<defs>
<radialGradient id="paint0_radial_1802_879" cx="0" cy="0" r="1" gradientUnits="userSpaceOnUse" gradientTransform="translate(-5.50632 0.595379) rotate(46.6629) scale(474.76 474.006)">
<stop stop-color="#E7C851"/>
<stop offset="1" stop-color="#E7C851" stop-opacity="0"/>
</radialGradient>
</defs>
</svg>
