<svg width="17" height="16" viewBox="0 0 17 16" fill="none" xmlns="http://www.w3.org/2000/svg">
<path d="M11 8C11 8.66304 10.7366 9.29893 10.2678 9.76777C9.79893 10.2366 9.16304 10.5 8.5 10.5C7.83696 10.5 7.20107 10.2366 6.73223 9.76777C6.26339 9.29893 6 8.66304 6 8C6 7.8575 6.015 7.71833 6.04083 7.58333H5.16667V10.9142C5.16667 11.1458 5.35417 11.3333 5.58583 11.3333H11.415C11.526 11.3331 11.6324 11.2889 11.7109 11.2103C11.7893 11.1317 11.8333 11.0252 11.8333 10.9142V7.58333H10.9592C10.985 7.71833 11 7.8575 11 8ZM8.5 9.66667C8.71892 9.66661 8.93569 9.62344 9.13793 9.53961C9.34017 9.45578 9.52392 9.33294 9.67868 9.17809C9.83345 9.02325 9.9562 8.83944 10.0399 8.63716C10.1237 8.43488 10.1667 8.21809 10.1667 7.99917C10.1666 7.78024 10.1234 7.56347 10.0396 7.36123C9.95578 7.15899 9.83294 6.97525 9.67809 6.82048C9.52325 6.66572 9.33944 6.54297 9.13716 6.45924C8.93488 6.37551 8.71809 6.33245 8.49917 6.3325C8.05703 6.33261 7.63304 6.50836 7.32048 6.82107C7.00792 7.13379 6.83239 7.55786 6.8325 8C6.83261 8.44214 7.00836 8.86612 7.32107 9.17868C7.63379 9.49125 8.05786 9.66678 8.5 9.66667ZM10.5 6.25H11.4992C11.5655 6.25 11.6292 6.22369 11.6762 6.17683C11.7233 6.12997 11.7498 6.06638 11.75 6V5.00083C11.75 4.93431 11.7236 4.87051 11.6765 4.82347C11.6295 4.77643 11.5657 4.75 11.4992 4.75H10.5C10.4335 4.75 10.3697 4.77643 10.3226 4.82347C10.2756 4.87051 10.2492 4.93431 10.2492 5.00083V6C10.25 6.1375 10.3625 6.25 10.5 6.25ZM8.5 0C6.37827 0 4.34344 0.842855 2.84315 2.34315C1.34285 3.84344 0.5 5.87827 0.5 8C0.5 10.1217 1.34285 12.1566 2.84315 13.6569C4.34344 15.1571 6.37827 16 8.5 16C9.55058 16 10.5909 15.7931 11.5615 15.391C12.5321 14.989 13.414 14.3997 14.1569 13.6569C14.8997 12.914 15.489 12.0321 15.891 11.0615C16.2931 10.0909 16.5 9.05058 16.5 8C16.5 6.94943 16.2931 5.90914 15.891 4.93853C15.489 3.96793 14.8997 3.08601 14.1569 2.34315C13.414 1.60028 12.5321 1.011 11.5615 0.608964C10.5909 0.206926 9.55058 0 8.5 0ZM12.6667 11.2408C12.6667 11.75 12.25 12.1667 11.7408 12.1667H5.25917C4.75 12.1667 4.33333 11.75 4.33333 11.2408V4.75917C4.33333 4.25 4.75 3.83333 5.25917 3.83333H11.7408C12.25 3.83333 12.6667 4.25 12.6667 4.75917V11.2408Z" fill="#04316D"/>
</svg>
