<svg width="17" height="16" viewBox="0 0 17 16" fill="none" xmlns="http://www.w3.org/2000/svg">
<path d="M8.5 0C4.08167 0 0.5 3.58167 0.5 8C0.5 12.4183 4.08167 16 8.5 16C12.9183 16 16.5 12.4183 16.5 8C16.5 3.58167 12.9183 0 8.5 0ZM6.54167 11.3158H4.92167V6.1025H6.54167V11.3158ZM5.72167 5.4625C5.21 5.4625 4.87917 5.1 4.87917 4.65167C4.87917 4.19417 5.22 3.8425 5.7425 3.8425C6.265 3.8425 6.585 4.19417 6.595 4.65167C6.595 5.1 6.265 5.4625 5.72167 5.4625ZM12.4583 11.3158H10.8383V8.42667C10.8383 7.75417 10.6033 7.2975 10.0175 7.2975C9.57 7.2975 9.30417 7.60667 9.18667 7.90417C9.14333 8.01 9.1325 8.16 9.1325 8.30917V11.315H7.51167V7.765C7.51167 7.11417 7.49083 6.57 7.46917 6.10167H8.87667L8.95083 6.82583H8.98333C9.19667 6.48583 9.71917 5.98417 10.5933 5.98417C11.6592 5.98417 12.4583 6.69833 12.4583 8.23333V11.3158Z" fill="#04316D"/>
</svg>
