<svg width="217" height="327" viewBox="0 0 217 327" fill="none" xmlns="http://www.w3.org/2000/svg">
<path d="M70.7437 242.758L68.8541 239.291L98.7853 131.93L102.156 130.082L70.7437 242.758ZM108.956 126.356L105.584 128.203L72.6307 246.224L74.521 249.688L108.956 126.356ZM95.4149 133.775L92.0463 135.623L65.0767 232.362L66.9637 235.827L95.4149 133.775ZM88.6759 137.468L85.3073 139.316L61.2993 225.432L63.1863 228.898L88.6759 137.468ZM115.695 122.662L112.324 124.507L76.4418 253.216L78.3321 256.68L115.695 122.662ZM135.915 111.58L132.544 113.428L87.7765 274.006L89.6661 277.473L135.915 111.58ZM149.453 104.161L146.083 106.006L95.3641 287.93L97.2545 291.394L149.453 104.161ZM142.654 107.887L139.283 109.732L91.5531 280.938L93.4434 284.402L142.654 107.887ZM129.173 115.273L125.805 117.121L83.9991 267.076L85.8861 270.542L129.173 115.273ZM48.1777 159.665L44.8073 161.51L38.597 183.787L40.4873 187.251L48.1777 159.665ZM81.9362 141.164L78.5657 143.009L57.5194 218.501L59.4097 221.965L81.9362 141.164ZM154.184 101.568L152.824 102.313L99.1441 294.861L99.9063 296.259L101.915 295.156L155.309 103.635L154.184 101.568ZM54.9174 155.969L51.5489 157.818L42.3769 190.717L44.2639 194.183L54.9174 155.969ZM34.6396 167.085L31.2684 168.933L31.0093 169.862L32.8989 173.329L34.6396 167.085ZM41.4387 163.359L38.0676 165.206L34.7859 176.795L36.6762 180.259L41.4387 163.359ZM55.6324 215.035L75.1972 144.857L71.826 146.705L53.7083 211.509L55.6324 215.035ZM61.659 152.277L58.2879 154.125L46.1543 197.647L48.0439 201.114L61.659 152.277ZM68.398 148.584L65.0269 150.431L49.9317 204.577L51.8213 208.043L68.398 148.584ZM122.434 118.969L119.066 120.815L80.2217 260.146L82.1095 263.609L122.434 118.969ZM200.711 186.925L198.821 183.461L179.542 252.612L182.913 250.767L200.711 186.925ZM204.488 193.857L202.598 190.391L186.281 248.918L189.652 247.071L204.488 193.857ZM208.265 200.787L206.375 197.321L193.02 245.225L196.391 243.377L208.265 200.787ZM196.931 179.994L195.044 176.528L172.777 256.4L176.145 254.552L196.931 179.994ZM203.13 239.684L212.042 207.717L210.155 204.251L199.762 241.533L203.13 239.684ZM221.52 225.105L220.04 230.417L223.411 228.569L221.52 225.105ZM219.633 221.639L217.743 218.175L213.301 234.11L216.671 232.265L219.633 221.639ZM215.853 214.709L213.966 211.243L206.561 237.806L209.929 235.958L215.853 214.709ZM193.12 173.003L191.233 169.537L166.003 260.034L169.372 258.186L193.12 173.003ZM159.086 110.565L157.199 107.099L105.285 293.311L108.654 291.463L159.086 110.565ZM170.42 131.358L168.533 127.892L125.506 282.229L128.874 280.381L170.42 131.358ZM166.643 124.428L164.753 120.962L118.764 285.922L122.135 284.074L166.643 124.428ZM189.343 166.073L187.456 162.607L159.264 263.727L162.633 261.879L189.343 166.073ZM174.198 138.288L172.311 134.822L132.245 278.536L135.613 276.687L174.198 138.288ZM162.866 117.496L160.976 114.032L112.025 289.615L115.396 287.77L162.866 117.496ZM185.565 159.143L183.676 155.676L152.523 267.42L155.894 265.572L185.565 159.143ZM178.009 145.28L176.122 141.814L139.044 274.809L142.413 272.961L178.009 145.28ZM181.789 152.21L179.898 148.746L145.784 271.113L149.154 269.268L181.789 152.21Z" fill="#CA9A3A"/>
<path d="M178.157 30.9927L57.1173 97.3292C56.4198 97.7093 56.1716 98.5993 56.563 99.3174L124.408 223.785C124.798 224.499 125.679 224.77 126.377 224.39L247.416 158.054C248.112 157.67 248.36 156.78 247.97 156.066L180.125 31.5984C179.733 30.8804 178.852 30.6092 178.157 30.9927ZM244.742 156.15L126.222 221.106L59.7915 99.2302L178.308 34.2761L244.742 156.15Z" fill="#FFCE0A"/>
</svg>
