<svg width="456" height="369" viewBox="0 0 456 369" fill="none" xmlns="http://www.w3.org/2000/svg">
<path d="M117.219 272.455L120.063 265.589L316.238 184.33L323.105 187.174L117.219 272.455ZM336.953 192.91L330.087 190.066L114.373 279.316L111.534 286.181L336.953 192.91ZM309.377 181.484L302.513 178.645L125.748 251.863L122.902 258.724L309.377 181.484ZM295.651 175.799L288.787 172.96L131.434 238.137L128.588 244.999L295.651 175.799ZM350.679 198.596L343.817 195.75L108.637 293.165L105.797 300.029L350.679 198.596ZM391.862 215.655L384.996 212.811L91.5826 334.347L88.7386 341.213L391.862 215.655ZM419.436 227.076L412.575 224.23L80.1563 361.922L77.3171 368.787L419.436 227.076ZM405.588 221.34L398.727 218.494L85.8925 348.074L83.0532 354.939L405.588 221.34ZM378.135 209.965L371.27 207.125L97.268 320.621L94.4219 327.482L378.135 209.965ZM213.163 141.635L206.301 138.789L165.598 155.649L162.758 162.513L213.163 141.635ZM281.921 170.115L275.059 167.269L137.117 224.407L134.278 231.271L281.921 170.115ZM429.072 231.068L426.303 229.92L74.473 375.653L73.3257 378.423L77.4204 380.115L427.373 235.159L429.072 231.068ZM226.893 147.318L220.029 144.479L159.914 169.379L157.068 176.241L226.893 147.318ZM185.589 130.213L178.723 127.369L177.024 128.073L174.18 134.939L185.589 130.213ZM199.437 135.95L192.571 133.105L171.334 141.801L168.495 148.665L199.437 135.95ZM139.963 217.545L268.195 164.43L261.329 161.586L142.853 210.559L139.963 217.545ZM240.621 153.009L233.755 150.164L154.229 183.105L151.385 189.971L240.621 153.009ZM254.347 158.694L247.48 155.85L148.544 196.831L145.699 203.697L254.347 158.694ZM364.404 204.281L357.545 201.44L102.953 306.895L100.112 313.755L364.404 204.281ZM359.044 400.131L361.883 393.267L235.528 445.605L242.39 448.451L359.044 400.131ZM353.354 413.859L356.198 406.993L249.254 451.29L256.12 454.135L353.354 413.859ZM347.668 427.585L350.512 420.719L262.98 456.976L269.846 459.82L347.668 427.585ZM364.727 386.401L367.573 379.539L221.629 439.991L228.493 442.831L364.727 386.401ZM283.571 465.505L341.983 441.311L344.829 434.449L276.707 462.666L283.571 465.505ZM327.717 475.751L318.012 479.771L324.878 482.615L327.717 475.751ZM330.563 468.889L333.403 462.025L304.286 474.086L311.147 476.932L330.563 468.889ZM336.247 455.159L339.093 448.297L290.555 468.402L297.42 471.241L336.247 455.159ZM370.463 372.553L373.309 365.691L207.949 434.186L214.814 437.025L370.463 372.553ZM421.688 248.885L424.534 242.024L84.2818 382.961L91.1461 385.8L421.688 248.885ZM404.629 290.069L407.475 283.208L125.466 400.02L132.33 402.859L404.629 290.069ZM410.314 276.343L413.159 269.477L111.738 394.33L118.604 397.174L410.314 276.343ZM376.149 358.827L378.995 351.966L194.224 428.5L201.088 431.339L376.149 358.827ZM398.944 303.795L401.79 296.933L139.191 405.705L146.056 408.544L398.944 303.795ZM416.005 262.616L418.844 255.751L98.0123 388.644L104.874 391.49L416.005 262.616ZM381.834 345.101L384.678 338.235L180.496 422.81L187.362 425.654L381.834 345.101ZM393.208 317.643L396.054 310.782L153.04 411.441L159.904 414.281L393.208 317.643ZM387.524 331.374L390.363 324.509L166.77 417.125L173.632 419.971L387.524 331.374Z" fill="#04316D"/>
<path d="M561.541 183.977L315.009 81.8598C313.592 81.2687 311.965 81.9424 311.376 83.3647L209.259 329.897C208.673 331.312 209.347 332.939 210.764 333.53L457.296 435.647C458.716 436.231 460.343 435.557 460.929 434.142L563.046 187.61C563.635 186.187 562.962 184.561 561.541 183.977ZM456.859 429.446L215.458 329.455L315.451 88.0583L556.846 188.047L456.859 429.446Z" fill="#E87009"/>
</svg>
