<svg width="31" height="31" viewBox="0 0 31 31" fill="none" xmlns="http://www.w3.org/2000/svg">
<path fill-rule="evenodd" clip-rule="evenodd" d="M22.4944 18.5768C22.1095 18.3843 20.2223 17.4569 19.871 17.3277C19.5197 17.1999 19.2639 17.1366 19.0069 17.5215C18.7511 17.9038 18.0162 18.7692 17.7927 19.025C17.568 19.282 17.3445 19.313 16.9609 19.1219C16.5772 18.9281 15.3398 18.5238 13.8738 17.2166C12.7332 16.1988 11.9621 14.942 11.7387 14.5571C11.5152 14.1735 11.7141 13.9655 11.9066 13.7744C12.0797 13.6026 12.2902 13.3261 12.4827 13.1027C12.6751 12.8779 12.7384 12.7178 12.8663 12.4607C12.9955 12.205 12.9309 11.9815 12.834 11.7891C12.7384 11.5966 11.9712 9.7069 11.6508 8.93836C11.3395 8.19048 11.0231 8.29252 10.788 8.2796C10.5632 8.26927 10.3075 8.26669 10.0518 8.26669C9.796 8.26669 9.38008 8.36227 9.02875 8.74719C8.67612 9.13081 7.68542 10.0595 7.68542 11.9492C7.68542 13.8376 9.05975 15.6628 9.25221 15.9198C9.44467 16.1756 11.9583 20.0531 15.8087 21.7155C16.7258 22.1108 17.4401 22.3471 17.9968 22.5228C18.9165 22.816 19.7535 22.7747 20.4148 22.6752C21.151 22.5654 22.6855 21.7465 23.0059 20.8501C23.3249 19.9537 23.3249 19.1851 23.2293 19.025C23.1337 18.8648 22.878 18.7692 22.4931 18.5768H22.4944ZM15.491 28.139H15.4858C13.1988 28.1394 10.9538 27.5246 8.98612 26.3591L8.52112 26.0826L3.68771 27.3511L4.97808 22.6391L4.67454 22.156C3.39597 20.1208 2.71934 17.7653 2.72283 15.3618C2.72542 8.32223 8.45267 2.59498 15.4961 2.59498C18.9061 2.59498 22.112 3.9254 24.5223 6.33823C25.7111 7.52215 26.6534 8.93004 27.2946 10.4805C27.9358 12.0309 28.2631 13.6931 28.2578 15.3709C28.2552 22.4104 22.528 28.139 15.491 28.139ZM26.3565 4.50536C24.9333 3.0728 23.24 1.93692 21.3746 1.16356C19.5093 0.390188 17.509 -0.00529567 15.4897 2.24118e-05C7.02408 2.24118e-05 0.13175 6.89106 0.129167 15.3605C0.125244 18.0559 0.832317 20.7046 2.17904 23.0395L0 31L8.14267 28.8636C10.3952 30.0908 12.9194 30.7339 15.4845 30.7339H15.491C23.9565 30.7339 30.8489 23.8429 30.8515 15.3721C30.8577 13.3536 30.4636 11.3539 29.6921 9.48865C28.9205 7.6234 27.7868 5.92964 26.3565 4.50536Z" fill="white"/>
</svg>
